<svg xmlns="http://www.w3.org/2000/svg" viewBox="0 0 786.33 786.33"><defs><style>.cls-1{fill:none;}.cls-2{fill:#f3b032;}.cls-2,.cls-3,.cls-4,.cls-5{fill-rule:evenodd;}.cls-3{fill:#d89b2f;}.cls-4{fill:#f3b133;}.cls-5{fill:#d89c30;}</style></defs><g id="圖層_2" data-name="圖層 2"><g id="圖層_1-2" data-name="圖層 1"><rect class="cls-1" width="786.33" height="786.33"/><path class="cls-2" d="M355.89,467.7c-1.54,2.25-3.85,3.81-5.38,6.1-.67,1-1.48,2-2.24,3s-.93,2.13-2.5,2c-.38,0-.88.64-1.22,1.06-4.35,5.51-9.73,10-14.55,15.08-2.24,2.34-4.5,4.67-6.88,6.87-4.38,4.05-8.87,8-13.4,11.87A156.24,156.24,0,0,1,291.83,527a137.55,137.55,0,0,1-22,11.3,144.68,144.68,0,0,1-19.28,5.89,77.54,77.54,0,0,1-7.81,1.36,51.16,51.16,0,0,0-8.26,1.49,20.76,20.76,0,0,1-4.46.53c-3.57.29-7.07,1.08-10.64,1.35-2.43.18-4.93,0-7.27.51-3.46.74-6.9.44-10.34.42-3.85,0-7.68-.55-11.51-1l-6.7-.72a55.91,55.91,0,0,1-9.3-1.66c-2.75-.79-5.56-1.38-8.32-2.08-4.44-1.13-8.75-2.66-13-4.17a110.11,110.11,0,0,1-14.58-6.48,167.57,167.57,0,0,1-22.87-14c-5.08-3.82-10-7.76-14.82-12A104.6,104.6,0,0,1,91.52,499a152.39,152.39,0,0,1-13-16c-3-4.49-5.92-9-8.58-13.74a156.84,156.84,0,0,1-12.72-30.65,133.56,133.56,0,0,1-3.67-15.2c-.71-3.77-1.37-7.58-2-11.36a42.22,42.22,0,0,1-.69-7q0-12.36,0-24.72a60.81,60.81,0,0,1,1-8.73c.35-2.54.75-5.06,1.16-7.59a96.57,96.57,0,0,1,2.48-10.67,143.07,143.07,0,0,1,7.23-20.11A167.58,167.58,0,0,1,76.2,308.73,179.42,179.42,0,0,1,88.63,291.9c3.68-4.3,7.25-8.7,11.48-12.44,4.81-4.27,9.46-8.72,14.85-12.36,3.2-2.16,6.29-4.53,9.59-6.53a121.53,121.53,0,0,1,15.35-7.91,127.77,127.77,0,0,1,13.53-5,103.81,103.81,0,0,1,11.13-2.73c3.64-.68,7.32-1.16,11-1.73,8.44-1.33,16.92-.91,25.39-1,2.71,1.13,5.64.4,8.47,1,2,.39,4.26.57,6.39.79a94.29,94.29,0,0,1,9.51,1.82,112.84,112.84,0,0,1,11.27,3c3,.93,5.89,1.95,8.72,3.15a95.4,95.4,0,0,1,8.65,4,134.16,134.16,0,0,1,16.74,10.65c5.18,3.93,10,8.24,14.85,12.55q5.27,4.68,10.07,9.75c3.87,4.1,7.69,8.26,11.4,12.51,3.13,3.59,6.29,7.18,9.27,10.9q5.25,6.57,10.53,13.13c3.68,4.59,7.26,9.27,10.89,13.9,4.39,5.61,8.41,11.51,12.41,17.41a9.44,9.44,0,0,1,1.91,6.15c-.48,5.18-3.55,6.79-8,5.52-5-1.42-8.89-4.37-12.69-7.7-8.28-7.22-15.52-15.51-23.56-23-3.52-3.27-7.33-6.25-11.18-9.17-2.77-2.09-5.44-4.33-8.2-6.45-4-3.06-8.12-5.93-12.12-8.95a156.92,156.92,0,0,0-16.75-10.79,109,109,0,0,0-14.62-7c-4.84-1.89-9.83-3.2-14.76-4.72a46.12,46.12,0,0,0-7.24-1.3c-6.57-.92-13.18-.68-19.77-.5a55.34,55.34,0,0,0-11,1.51c-1.93.45-3.93.84-5.91,1.14a86.92,86.92,0,0,0-11.29,3,94.57,94.57,0,0,0-18,7.61,127.3,127.3,0,0,0-13.2,8.51c-3.3,2.34-6.17,5.19-9.3,7.73-2.7,2.18-4.75,5.06-7,7.66a75.64,75.64,0,0,0-7.8,10.92,111.14,111.14,0,0,0-7.17,13.73c-1.64,3.89-3.19,7.79-4.44,11.81-1.34,4.32-2.27,8.73-3.28,13.14-2,8.79-1.81,17.69-1.45,26.55a81.32,81.32,0,0,0,1.93,13.59,101.22,101.22,0,0,0,4.08,14.2,80,80,0,0,0,5.86,12.9c2.17,3.68,4.47,7.25,6.83,10.8.85,1.27,1.89,2.36,2.8,3.53A102.18,102.18,0,0,0,137.93,471a133.55,133.55,0,0,0,19.42,14.14,102.8,102.8,0,0,0,18.92,8.79A79.12,79.12,0,0,0,190,497.6c2.26.37,4.69.45,7,.79,4.31.64,8.58.35,12.85.35a49.47,49.47,0,0,0,8.18-1l6.76-1.12a85,85,0,0,0,13.34-3.42c7-2.36,14-4.75,20.51-8.3a137.94,137.94,0,0,0,16.29-10.41c4.54-3.39,8.91-6.95,13.11-10.76,1.6-1.45,3.26-2.88,4.8-4.41,6.18-6.12,12.41-12.2,18.46-18.46,34.52-35.7,70-70.42,105.15-105.52,6.77-6.77,13.46-13.64,20.58-20.05,4.24-3.81,8.38-7.73,12.21-11.92,4-4.41,8.46-8.44,12.39-12.92,2.23-2.55,4.51-5,7-7.36,3.56-3.36,7.29-6.55,11-9.81.11-.1.45,0,.5-.1a7.26,7.26,0,0,1,3.46-3c1.34-.74,2.63-1.71,4-2.44a118,118,0,0,1-7.33,11.58c-7.33,9.61-14.43,19.4-21.51,29.2-10,13.84-19.94,27.71-29.25,42-8.87,13.64-17.32,27.54-25.74,41.46q-10.21,16.93-20.94,33.55c-8.91,13.73-17.85,27.44-27.07,41C355.34,467,355,467.43,355.89,467.7Z"/><path class="cls-3" d="M355.89,467.7c-.62-.1-.76-.45-.43-.95,5.7-8.49,11.56-16.88,17.07-25.49,4.82-7.55,9.84-15,14.54-22.6,3.28-5.33,6.67-10.62,10.08-15.89,2.92-4.5,5.53-9.2,8.32-13.79,2.93-4.82,6-9.57,8.82-14.44,3-5.16,6.16-10.26,9.43-15.25,4.6-7,9-14.21,14-21,2.65-3.59,5.08-7.35,7.64-11,3.07-4.4,6.09-8.83,9.33-13.11,3.08-4.07,6-8.26,9-12.4,2.84-3.92,5.66-7.86,8.53-11.76s5.86-7.75,8.63-11.74c.75-1.1,1.74-2,2.48-3.11,1.45-2.27,2.23-5,4.22-6.91.09-.09,0-.36,0-.54,2.74-2.1,5.78-3.75,8.58-5.71a99.52,99.52,0,0,1,15.36-8.7,143.79,143.79,0,0,1,22.38-8.5c4.67-1.3,9.37-2.53,14.07-3.63,2.62-.61,5.43-.78,8.11-1.29,4-.78,8.14-.57,12.12-1.62a6.6,6.6,0,0,1,1.66,0c5.83,0,11.66.13,17.49,0a74.64,74.64,0,0,1,12,.7c4.94.65,9.85,1.66,14.75,2.56a135.63,135.63,0,0,1,21.88,6.35,129.36,129.36,0,0,1,21.37,10.33c4.5,2.65,9,5.34,13.23,8.34,3.77,2.65,7.42,5.45,11,8.27,5.43,4.23,10.19,9.15,15.05,14a120.87,120.87,0,0,1,8.32,9.89,113.92,113.92,0,0,1,7.24,10.1,131.25,131.25,0,0,1,9.27,16.48,171.71,171.71,0,0,1,8.85,23.07c1.22,4.24,2.43,8.49,3.33,12.82.94,4.48,1.69,9,2.28,13.53.46,3.55.66,7.14,1.15,10.66.77,5.5.1,11,.49,16.45.12,1.76-.75,3.3-.66,5.05a14.14,14.14,0,0,1-.38,4.81,27,27,0,0,0-.6,5.3,69.89,69.89,0,0,1-1.38,7.8c-.8,4.34-2,8.62-3.14,12.88a61,61,0,0,1-2.26,6.85c-2.48,6.12-4.88,12.29-7.93,18.17a199.53,199.53,0,0,1-12.61,20.95c-2.92,4.26-6.14,8.26-9.4,12.27a139.18,139.18,0,0,1-14.85,15.74,130.15,130.15,0,0,1-22.55,16.69,116.59,116.59,0,0,1-23.46,10.62,139.51,139.51,0,0,1-13.67,3.31c-3.29.65-6.71.44-9.9,1.62-.08,0-.18,0-.27,0a112.53,112.53,0,0,1-19.76.4c-3.46-.26-6.9-.29-10.34-.37-1.46,0-2.72-.79-4.23-.66a12,12,0,0,1-4.25-.39,34.68,34.68,0,0,0-5.57-.58,104.06,104.06,0,0,1-22.93-5.14,80,80,0,0,1-14.14-6.21,129.13,129.13,0,0,1-16-10.39c-3.61-2.83-7.08-5.82-10.55-8.81-6.51-5.61-12.31-11.92-18.34-18-3.18-3.21-6.06-6.75-9.06-10.15-4.68-5.31-9.14-10.82-13.6-16.33-4.14-5.12-8.28-10.26-12.19-15.55-4.87-6.59-9.86-13.09-14.44-19.89A13.55,13.55,0,0,1,437,422.6c.2-2.27,2.78-4.35,4.92-3.76a30.14,30.14,0,0,1,11.83,5.79,66.28,66.28,0,0,1,8.09,7.79,77.17,77.17,0,0,0,6.4,6.75c4.52,4.17,9,8.36,13.78,12.29,3.93,3.25,7.89,6.45,11.94,9.55,3.06,2.36,6.3,4.49,9.47,6.7q5.32,3.72,10.47,7.66a147.12,147.12,0,0,0,15.4,10.5,103.31,103.31,0,0,0,23,9.71c2.93.85,5.88,1.54,8.86,2.11,3.61.7,7.28.89,10.93,1.26a50.47,50.47,0,0,0,8.67.33c3.18-.22,6.38-.53,9.57-.91,3-.36,6-.9,9-1.31a92.18,92.18,0,0,0,9.85-2.37,72.88,72.88,0,0,0,11-3.69A110.18,110.18,0,0,0,632,485.3c3.79-2.18,7.4-4.59,11-7.06a55.42,55.42,0,0,0,5.93-4.47c2.91-2.65,6.08-5,8.64-8a136.57,136.57,0,0,0,13.38-18.09,108,108,0,0,0,10.31-24.15,69.07,69.07,0,0,0,2.51-11.23c.58-4.31,1.16-8.61,1.7-12.93s.13-8.39.42-12.57c.11-1.54-.83-2.9-.6-4.5.19-1.39-.3-2.84-.4-4.22a71.28,71.28,0,0,0-1.78-9.32,88.75,88.75,0,0,0-4.2-13.29,90.73,90.73,0,0,0-11-19.66,106.84,106.84,0,0,0-8.52-10.43c-1.9-2.09-3.68-4.3-5.77-6.19A170.91,170.91,0,0,0,638.93,307a116.33,116.33,0,0,0-18.27-10.42,90.71,90.71,0,0,0-17.55-6,56.13,56.13,0,0,0-8.12-1.31c-4.57-.42-9.12-1-13.72-1-1.73,0-3.29.77-5.06.65a11.22,11.22,0,0,0-4.81.4c-1.41.53-3.15.36-4.74.56a101.5,101.5,0,0,0-12,2.67c-10.53,2.61-20.19,7.28-29.66,12.42A72.56,72.56,0,0,0,514.55,312c-5.59,4.46-10.47,9.66-15.64,14.57-12.05,11.44-23.5,23.49-35.57,34.91-10.66,10.09-20.67,20.83-31.34,30.88-18.44,17.37-35.78,35.83-54,53.38-5,4.78-10,9.49-14.76,14.48C360.81,462.76,357.91,464.81,355.89,467.7Z"/><path class="cls-3" d="M566.6,311c3-.52,6.72.23,10.39.67a98.83,98.83,0,0,1,16.61,3.45,97.21,97.21,0,0,1,11,3.71,106.45,106.45,0,0,1,11.84,5.71q5.67,3.27,11,7.05a69.3,69.3,0,0,1,13.68,12.61c3.84,4.7,6.72,10,9.78,15.15a41.18,41.18,0,0,1,4.7,11.14c.72,3,1,5.9-.79,8.73-1.57,2.45-4.6,3.27-6.77,1.4a28.43,28.43,0,0,1-6.62-8.08c-2.49-4.63-5.07-9.21-7.56-13.84A52,52,0,0,0,622,343.65a84.43,84.43,0,0,0-18.31-11.52,105.61,105.61,0,0,0-19.89-7.07,68.06,68.06,0,0,0-7.81-1.35,73.82,73.82,0,0,0-7.84-.42c-1.17,0-2.14-.74-3.39-.6-6.92.76-13.9,1-20.58,3.35a62.41,62.41,0,0,0-12.62,5.79,6.58,6.58,0,0,0-2.24,2.1,3.92,3.92,0,0,1-1.75,1.72c-1.29.46-2.47,1.64-4.14.5s-3-1.94-3.18-4.25a8.29,8.29,0,0,1,2.65-6.43,21.09,21.09,0,0,1,5.31-3.91c2.8-1.52,5.59-3,8.45-4.44a58,58,0,0,1,13.48-4.46A74,74,0,0,1,566.6,311Z"/><path class="cls-2" d="M228.4,464.37c-2.12,0-4.25.06-6.38,0-3.76-.14-7.48-.63-11.22-1-2.31-.23-4.66-.47-7-.73-3.13-.35-6.25-.95-9.37-1.44-2.86-.46-5.63-1.2-8.44-1.83a90.33,90.33,0,0,1-14.16-4.77,95.87,95.87,0,0,1-10.6-5.26,83.11,83.11,0,0,1-10.65-7.23,84.86,84.86,0,0,1-10.92-9.83c-4.49-5-9-10-11.84-16.22a59.62,59.62,0,0,1-3-8.22,6.2,6.2,0,0,1,.73-4.39c.78-1.57,3.59-1.9,5.22-.52a30.62,30.62,0,0,1,4.89,4.9c2.43,3.29,5.08,6.4,7.49,9.69A77.41,77.41,0,0,0,153,428.39a81.85,81.85,0,0,0,14.6,11c6,3.46,12.08,6.6,18.75,8.49,3.59,1,7.2,2,10.88,2.63s7.68,1.2,11.53,1.75c2.45.34,4.93,0,7.26.52,2.55.61,5.06.27,7.57.48,1.82.15,3.48-.74,5.33-.63a28.39,28.39,0,0,0,5.34-.37,99.27,99.27,0,0,0,9.86-1.77,35.8,35.8,0,0,0,9.25-3.88c3.16-1.76,5.93-4.14,9.54-5.21,3.09-.92,5.79-.07,8.41,1,2,.85,2.3,3.7,1.14,5.63-1.82,3-4.64,4.9-7.43,6.83a43.15,43.15,0,0,1-12.41,6.31c-2.83.82-5.7,1.49-8.6,2.1C238.87,464.42,233.65,464.4,228.4,464.37Z"/><path class="cls-4" d="M285.81,440.48c-2.46,0-5.39-2.82-5.47-5.22-.1-2.84,2.84-5.91,5.64-5.89,2.52,0,5.64,2.92,5.38,5.49a6,6,0,0,1-1.81,3.95C288.46,439.79,287.39,440.66,285.81,440.48Z"/><path class="cls-5" d="M504.75,336.88a5.2,5.2,0,0,1,4.86-5.28,4.38,4.38,0,0,1,3.38,1.28,5.79,5.79,0,0,1,1.64,4,5.72,5.72,0,0,1-1.65,4,4.18,4.18,0,0,1-3.1,1.28A5.13,5.13,0,0,1,504.75,336.88Z"/></g></g></svg>